<mxfile host="Electron" modified="2024-01-08T13:34:44.817Z" agent="Mozilla/5.0 (Windows NT 10.0; Win64; x64) AppleWebKit/537.36 (KHTML, like Gecko) draw.io/22.1.16 Chrome/120.0.6099.109 Electron/28.1.0 Safari/537.36" etag="QJiudXuQDVi5IyvfHGq3" version="22.1.16" type="device">
  <diagram name="Page-1" id="edFX1pW7LbjZiqkLn0fU">
    <mxGraphModel dx="1050" dy="717" grid="1" gridSize="10" guides="1" tooltips="1" connect="1" arrows="1" fold="1" page="1" pageScale="1" pageWidth="827" pageHeight="1169" math="0" shadow="0">
      <root>
        <mxCell id="0" />
        <mxCell id="1" parent="0" />
        <mxCell id="zkoh095dpT4NfTJxIsFo-1" value="Réservation Vol" style="swimlane;whiteSpace=wrap;html=1;" vertex="1" parent="1">
          <mxGeometry x="114" y="40" width="596" height="730" as="geometry" />
        </mxCell>
        <mxCell id="zkoh095dpT4NfTJxIsFo-4" value="Réservation vol" style="ellipse;whiteSpace=wrap;html=1;" vertex="1" parent="zkoh095dpT4NfTJxIsFo-1">
          <mxGeometry x="168" y="310" width="120" height="80" as="geometry" />
        </mxCell>
        <mxCell id="zkoh095dpT4NfTJxIsFo-5" value="Annulation vol" style="ellipse;whiteSpace=wrap;html=1;" vertex="1" parent="zkoh095dpT4NfTJxIsFo-1">
          <mxGeometry x="468" y="582" width="120" height="80" as="geometry" />
        </mxCell>
        <mxCell id="zkoh095dpT4NfTJxIsFo-6" value="Ouvre la réservation" style="ellipse;whiteSpace=wrap;html=1;" vertex="1" parent="zkoh095dpT4NfTJxIsFo-1">
          <mxGeometry x="178" y="502" width="120" height="80" as="geometry" />
        </mxCell>
        <mxCell id="zkoh095dpT4NfTJxIsFo-7" value="Ferme la réservation" style="ellipse;whiteSpace=wrap;html=1;" vertex="1" parent="zkoh095dpT4NfTJxIsFo-1">
          <mxGeometry x="292" y="582" width="120" height="80" as="geometry" />
        </mxCell>
        <mxCell id="zkoh095dpT4NfTJxIsFo-8" value="Confirmation réservation" style="ellipse;whiteSpace=wrap;html=1;" vertex="1" parent="zkoh095dpT4NfTJxIsFo-1">
          <mxGeometry x="348" y="310" width="120" height="80" as="geometry" />
        </mxCell>
        <mxCell id="zkoh095dpT4NfTJxIsFo-9" value="Annulation réservation" style="ellipse;whiteSpace=wrap;html=1;" vertex="1" parent="zkoh095dpT4NfTJxIsFo-1">
          <mxGeometry x="468" y="400" width="120" height="80" as="geometry" />
        </mxCell>
        <mxCell id="zkoh095dpT4NfTJxIsFo-14" value="Identification du vol" style="ellipse;whiteSpace=wrap;html=1;" vertex="1" parent="zkoh095dpT4NfTJxIsFo-1">
          <mxGeometry x="8" y="642" width="120" height="80" as="geometry" />
        </mxCell>
        <mxCell id="zkoh095dpT4NfTJxIsFo-15" value="Création du vol" style="ellipse;whiteSpace=wrap;html=1;" vertex="1" parent="zkoh095dpT4NfTJxIsFo-1">
          <mxGeometry x="8" y="502" width="120" height="80" as="geometry" />
        </mxCell>
        <mxCell id="zkoh095dpT4NfTJxIsFo-18" value="Vol" style="ellipse;whiteSpace=wrap;html=1;" vertex="1" parent="zkoh095dpT4NfTJxIsFo-1">
          <mxGeometry x="178" y="642" width="120" height="80" as="geometry" />
        </mxCell>
        <mxCell id="zkoh095dpT4NfTJxIsFo-22" value="Choix passager" style="ellipse;whiteSpace=wrap;html=1;" vertex="1" parent="zkoh095dpT4NfTJxIsFo-1">
          <mxGeometry x="248" y="400" width="120" height="80" as="geometry" />
        </mxCell>
        <mxCell id="zkoh095dpT4NfTJxIsFo-23" value="S&#39;identifier" style="ellipse;whiteSpace=wrap;html=1;" vertex="1" parent="zkoh095dpT4NfTJxIsFo-1">
          <mxGeometry x="8" y="310" width="120" height="80" as="geometry" />
        </mxCell>
        <mxCell id="zkoh095dpT4NfTJxIsFo-24" value="include" style="endArrow=open;endSize=12;dashed=1;html=1;rounded=0;entryX=1;entryY=0.5;entryDx=0;entryDy=0;exitX=0;exitY=0.5;exitDx=0;exitDy=0;" edge="1" parent="zkoh095dpT4NfTJxIsFo-1" source="zkoh095dpT4NfTJxIsFo-4" target="zkoh095dpT4NfTJxIsFo-23">
          <mxGeometry width="160" relative="1" as="geometry">
            <mxPoint x="168" y="510" as="sourcePoint" />
            <mxPoint x="328" y="510" as="targetPoint" />
          </mxGeometry>
        </mxCell>
        <mxCell id="zkoh095dpT4NfTJxIsFo-25" value="include" style="endArrow=open;endSize=12;dashed=1;html=1;rounded=0;entryX=0.5;entryY=1;entryDx=0;entryDy=0;exitX=0;exitY=0.5;exitDx=0;exitDy=0;" edge="1" parent="zkoh095dpT4NfTJxIsFo-1" source="zkoh095dpT4NfTJxIsFo-22" target="zkoh095dpT4NfTJxIsFo-4">
          <mxGeometry width="160" relative="1" as="geometry">
            <mxPoint x="168" y="510" as="sourcePoint" />
            <mxPoint x="328" y="510" as="targetPoint" />
            <Array as="points">
              <mxPoint x="228" y="440" />
            </Array>
          </mxGeometry>
        </mxCell>
        <mxCell id="zkoh095dpT4NfTJxIsFo-26" value="include" style="endArrow=open;endSize=12;dashed=1;html=1;rounded=0;exitX=0;exitY=1;exitDx=0;exitDy=0;entryX=0.5;entryY=0;entryDx=0;entryDy=0;" edge="1" parent="zkoh095dpT4NfTJxIsFo-1" source="zkoh095dpT4NfTJxIsFo-4" target="zkoh095dpT4NfTJxIsFo-6">
          <mxGeometry width="160" relative="1" as="geometry">
            <mxPoint x="168" y="510" as="sourcePoint" />
            <mxPoint x="198" y="490" as="targetPoint" />
            <Array as="points">
              <mxPoint x="186" y="470" />
              <mxPoint x="238" y="470" />
            </Array>
          </mxGeometry>
        </mxCell>
        <mxCell id="zkoh095dpT4NfTJxIsFo-27" value="include" style="endArrow=open;endSize=12;dashed=1;html=1;rounded=0;exitX=0.5;exitY=0;exitDx=0;exitDy=0;entryX=0.5;entryY=1;entryDx=0;entryDy=0;" edge="1" parent="zkoh095dpT4NfTJxIsFo-1" source="zkoh095dpT4NfTJxIsFo-14" target="zkoh095dpT4NfTJxIsFo-15">
          <mxGeometry width="160" relative="1" as="geometry">
            <mxPoint x="168" y="512" as="sourcePoint" />
            <mxPoint x="328" y="512" as="targetPoint" />
          </mxGeometry>
        </mxCell>
        <mxCell id="zkoh095dpT4NfTJxIsFo-29" value="Extends" style="endArrow=block;endSize=16;endFill=0;html=1;rounded=0;exitX=0.5;exitY=0;exitDx=0;exitDy=0;entryX=1;entryY=0.5;entryDx=0;entryDy=0;" edge="1" parent="zkoh095dpT4NfTJxIsFo-1" source="zkoh095dpT4NfTJxIsFo-7" target="zkoh095dpT4NfTJxIsFo-6">
          <mxGeometry width="160" relative="1" as="geometry">
            <mxPoint x="168" y="512" as="sourcePoint" />
            <mxPoint x="328" y="512" as="targetPoint" />
            <Array as="points">
              <mxPoint x="352" y="542" />
            </Array>
          </mxGeometry>
        </mxCell>
        <mxCell id="zkoh095dpT4NfTJxIsFo-30" value="Extends" style="endArrow=block;endSize=16;endFill=0;html=1;rounded=0;exitX=0.5;exitY=0;exitDx=0;exitDy=0;entryX=1;entryY=0;entryDx=0;entryDy=0;" edge="1" parent="zkoh095dpT4NfTJxIsFo-1" target="zkoh095dpT4NfTJxIsFo-6">
          <mxGeometry width="160" relative="1" as="geometry">
            <mxPoint x="527.9999999999998" y="582" as="sourcePoint" />
            <mxPoint x="328" y="512" as="targetPoint" />
            <Array as="points">
              <mxPoint x="528" y="512" />
            </Array>
          </mxGeometry>
        </mxCell>
        <mxCell id="zkoh095dpT4NfTJxIsFo-31" value="include" style="endArrow=open;endSize=12;dashed=1;html=1;rounded=0;exitX=0;exitY=0.5;exitDx=0;exitDy=0;entryX=1;entryY=0.5;entryDx=0;entryDy=0;" edge="1" parent="zkoh095dpT4NfTJxIsFo-1" source="zkoh095dpT4NfTJxIsFo-18" target="zkoh095dpT4NfTJxIsFo-14">
          <mxGeometry width="160" relative="1" as="geometry">
            <mxPoint x="168" y="512" as="sourcePoint" />
            <mxPoint x="328" y="512" as="targetPoint" />
          </mxGeometry>
        </mxCell>
        <mxCell id="zkoh095dpT4NfTJxIsFo-34" value="Créer un utilisateur" style="ellipse;whiteSpace=wrap;html=1;" vertex="1" parent="zkoh095dpT4NfTJxIsFo-1">
          <mxGeometry x="20" y="40" width="120" height="80" as="geometry" />
        </mxCell>
        <mxCell id="zkoh095dpT4NfTJxIsFo-35" value="" style="endArrow=none;html=1;rounded=0;" edge="1" parent="zkoh095dpT4NfTJxIsFo-1">
          <mxGeometry width="50" height="50" relative="1" as="geometry">
            <mxPoint x="-2" y="290" as="sourcePoint" />
            <mxPoint x="598" y="290" as="targetPoint" />
          </mxGeometry>
        </mxCell>
        <mxCell id="zkoh095dpT4NfTJxIsFo-36" value="S&#39;identifier" style="ellipse;whiteSpace=wrap;html=1;" vertex="1" parent="zkoh095dpT4NfTJxIsFo-1">
          <mxGeometry x="14" y="190" width="120" height="80" as="geometry" />
        </mxCell>
        <mxCell id="zkoh095dpT4NfTJxIsFo-37" value="Données clients" style="ellipse;whiteSpace=wrap;html=1;" vertex="1" parent="zkoh095dpT4NfTJxIsFo-1">
          <mxGeometry x="240" y="40" width="120" height="80" as="geometry" />
        </mxCell>
        <mxCell id="zkoh095dpT4NfTJxIsFo-42" value="Gérer les données clients" style="ellipse;whiteSpace=wrap;html=1;" vertex="1" parent="zkoh095dpT4NfTJxIsFo-1">
          <mxGeometry x="240" y="190" width="120" height="80" as="geometry" />
        </mxCell>
        <mxCell id="zkoh095dpT4NfTJxIsFo-50" value="include" style="endArrow=open;endSize=12;dashed=1;html=1;rounded=0;entryX=1;entryY=0.5;entryDx=0;entryDy=0;exitX=0;exitY=0.5;exitDx=0;exitDy=0;" edge="1" parent="zkoh095dpT4NfTJxIsFo-1" source="zkoh095dpT4NfTJxIsFo-37" target="zkoh095dpT4NfTJxIsFo-34">
          <mxGeometry width="160" relative="1" as="geometry">
            <mxPoint x="190" y="350" as="sourcePoint" />
            <mxPoint x="350" y="350" as="targetPoint" />
          </mxGeometry>
        </mxCell>
        <mxCell id="zkoh095dpT4NfTJxIsFo-51" value="Extends" style="endArrow=block;endSize=16;endFill=0;html=1;rounded=0;entryX=1;entryY=1;entryDx=0;entryDy=0;exitX=0;exitY=0;exitDx=0;exitDy=0;" edge="1" parent="zkoh095dpT4NfTJxIsFo-1" source="zkoh095dpT4NfTJxIsFo-42" target="zkoh095dpT4NfTJxIsFo-34">
          <mxGeometry width="160" relative="1" as="geometry">
            <mxPoint x="190" y="350" as="sourcePoint" />
            <mxPoint x="350" y="350" as="targetPoint" />
          </mxGeometry>
        </mxCell>
        <mxCell id="zkoh095dpT4NfTJxIsFo-52" value="Extends" style="endArrow=block;endSize=16;endFill=0;html=1;rounded=0;entryX=1;entryY=0.5;entryDx=0;entryDy=0;exitX=0;exitY=0.5;exitDx=0;exitDy=0;" edge="1" parent="zkoh095dpT4NfTJxIsFo-1" source="zkoh095dpT4NfTJxIsFo-42" target="zkoh095dpT4NfTJxIsFo-36">
          <mxGeometry width="160" relative="1" as="geometry">
            <mxPoint x="190" y="350" as="sourcePoint" />
            <mxPoint x="350" y="350" as="targetPoint" />
          </mxGeometry>
        </mxCell>
        <mxCell id="zkoh095dpT4NfTJxIsFo-53" value="incluide" style="endArrow=open;endSize=12;dashed=1;html=1;rounded=0;entryX=1;entryY=0.5;entryDx=0;entryDy=0;exitX=0;exitY=0.5;exitDx=0;exitDy=0;" edge="1" parent="zkoh095dpT4NfTJxIsFo-1" source="zkoh095dpT4NfTJxIsFo-6" target="zkoh095dpT4NfTJxIsFo-15">
          <mxGeometry width="160" relative="1" as="geometry">
            <mxPoint x="196" y="330" as="sourcePoint" />
            <mxPoint x="356" y="330" as="targetPoint" />
          </mxGeometry>
        </mxCell>
        <mxCell id="zkoh095dpT4NfTJxIsFo-2" value="Utilisateur" style="shape=umlActor;verticalLabelPosition=bottom;verticalAlign=top;html=1;outlineConnect=0;" vertex="1" parent="1">
          <mxGeometry x="40" y="455" width="30" height="60" as="geometry" />
        </mxCell>
        <mxCell id="zkoh095dpT4NfTJxIsFo-3" value="Compagnie" style="shape=umlActor;verticalLabelPosition=bottom;verticalAlign=top;html=1;outlineConnect=0;" vertex="1" parent="1">
          <mxGeometry x="40" y="640" width="30" height="65" as="geometry" />
        </mxCell>
        <mxCell id="zkoh095dpT4NfTJxIsFo-16" value="" style="endArrow=none;html=1;rounded=0;exitX=0.5;exitY=0.5;exitDx=0;exitDy=0;exitPerimeter=0;" edge="1" parent="1" source="zkoh095dpT4NfTJxIsFo-2" target="zkoh095dpT4NfTJxIsFo-23">
          <mxGeometry width="50" height="50" relative="1" as="geometry">
            <mxPoint x="340" y="665" as="sourcePoint" />
            <mxPoint x="90" y="485" as="targetPoint" />
            <Array as="points">
              <mxPoint x="182" y="485" />
            </Array>
          </mxGeometry>
        </mxCell>
        <mxCell id="zkoh095dpT4NfTJxIsFo-19" value="" style="endArrow=none;html=1;rounded=0;exitX=0.5;exitY=0.5;exitDx=0;exitDy=0;exitPerimeter=0;entryX=-0.027;entryY=0.496;entryDx=0;entryDy=0;entryPerimeter=0;" edge="1" parent="1" source="zkoh095dpT4NfTJxIsFo-3" target="zkoh095dpT4NfTJxIsFo-15">
          <mxGeometry width="50" height="50" relative="1" as="geometry">
            <mxPoint x="340" y="725" as="sourcePoint" />
            <mxPoint x="390" y="675" as="targetPoint" />
            <Array as="points">
              <mxPoint x="55" y="582" />
            </Array>
          </mxGeometry>
        </mxCell>
        <mxCell id="zkoh095dpT4NfTJxIsFo-21" value="" style="endArrow=none;html=1;rounded=0;exitX=0.5;exitY=0.5;exitDx=0;exitDy=0;exitPerimeter=0;entryX=0;entryY=0.5;entryDx=0;entryDy=0;" edge="1" parent="1" source="zkoh095dpT4NfTJxIsFo-3" target="zkoh095dpT4NfTJxIsFo-14">
          <mxGeometry width="50" height="50" relative="1" as="geometry">
            <mxPoint x="340" y="725" as="sourcePoint" />
            <mxPoint x="390" y="675" as="targetPoint" />
            <Array as="points">
              <mxPoint x="55" y="722" />
              <mxPoint x="80" y="722" />
            </Array>
          </mxGeometry>
        </mxCell>
        <mxCell id="zkoh095dpT4NfTJxIsFo-44" value="" style="endArrow=none;html=1;rounded=0;exitX=0.5;exitY=0;exitDx=0;exitDy=0;exitPerimeter=0;entryX=0;entryY=0.5;entryDx=0;entryDy=0;" edge="1" parent="1" source="zkoh095dpT4NfTJxIsFo-2" target="zkoh095dpT4NfTJxIsFo-34">
          <mxGeometry width="50" height="50" relative="1" as="geometry">
            <mxPoint x="400" y="320" as="sourcePoint" />
            <mxPoint x="450" y="270" as="targetPoint" />
            <Array as="points">
              <mxPoint x="60" y="210" />
              <mxPoint x="60" y="120" />
            </Array>
          </mxGeometry>
        </mxCell>
        <mxCell id="zkoh095dpT4NfTJxIsFo-49" value="" style="endArrow=none;html=1;rounded=0;entryX=0;entryY=0.5;entryDx=0;entryDy=0;exitX=0.5;exitY=0;exitDx=0;exitDy=0;exitPerimeter=0;" edge="1" parent="1" source="zkoh095dpT4NfTJxIsFo-3" target="zkoh095dpT4NfTJxIsFo-36">
          <mxGeometry width="50" height="50" relative="1" as="geometry">
            <mxPoint x="370" y="500" as="sourcePoint" />
            <mxPoint x="420" y="450" as="targetPoint" />
            <Array as="points">
              <mxPoint x="20" y="640" />
              <mxPoint x="20" y="360" />
              <mxPoint x="20" y="270" />
            </Array>
          </mxGeometry>
        </mxCell>
      </root>
    </mxGraphModel>
  </diagram>
</mxfile>
